<svg width="55" height="76" viewBox="0 0 55 76" fill="none" xmlns="http://www.w3.org/2000/svg">
<path d="M22.2642 4.32043H31.9443V19.2245H22.2642V4.32043Z" fill="#F1543F"/>
<path d="M12.0146 4.32043H14.1974V19.2245H12.0146V4.32043Z" fill="#F1543F"/>
<path d="M40.0112 4.32043H42.194V19.2245H40.0112V4.32043Z" fill="#F1543F"/>
<path d="M10.1167 75.1771H44.0921C45.5156 75.1771 46.6544 74.178 46.6544 72.929V62.771H7.55427V72.929C7.55427 74.178 8.69311 75.1771 10.1167 75.1771Z" fill="#F1543F"/>
<path d="M27.1044 15.6437C40.6755 15.6437 51.6843 17.0591 51.6843 28.9657V59.5231C51.6843 71.4297 40.6755 69.8477 27.1044 69.8477C13.5332 69.8477 2.52439 71.4297 2.52439 59.5231V28.9657C2.52439 17.0591 13.5332 15.6437 27.1044 15.6437Z" fill="#FF7058"/>
<path d="M11.9199 5.81913H42.289C43.9023 5.81913 45.1361 4.65345 45.1361 3.32124C45.1361 1.90578 43.8074 0.823364 42.289 0.823364H11.9199C10.3065 0.823364 9.0728 1.98904 9.0728 3.32124C9.0728 4.73671 10.3065 5.81913 11.9199 5.81913Z" fill="#FF7058"/>
<path d="M1.57533 54.4445H52.6333C53.3926 54.4445 54.0569 53.8617 54.0569 53.1956C54.0569 52.5295 53.3926 51.9467 52.6333 51.9467H1.48043C0.721203 51.9467 0.056881 52.5295 0.056881 53.1956C0.151783 53.8617 0.721203 54.4445 1.57533 54.4445Z" fill="#E6E9EE"/>
<path d="M1.57533 32.7962H52.6333C53.3926 32.7962 54.0569 32.2134 54.0569 31.5473C54.0569 30.8812 53.3926 30.2983 52.6333 30.2983H1.48043C0.721203 30.2983 0.056881 30.8812 0.056881 31.5473C0.151783 32.2134 0.721203 32.7962 1.57533 32.7962Z" fill="#E6E9EE"/>
</svg>
